<svg width="16" height="16" viewBox="0 0 16 16" fill="none" xmlns="http://www.w3.org/2000/svg">
<path d="M15.4385 14.3525L12.5578 11.4717C13.5208 10.3295 14.1035 8.85725 14.1035 7.25C14.1035 3.63125 11.1598 0.6875 7.54102 0.6875C3.92227 0.6875 0.978516 3.63125 0.978516 7.25C0.978516 10.8687 3.92227 13.8125 7.54102 13.8125C9.14827 13.8125 10.6205 13.2297 11.7628 12.2667L14.6435 15.1475C14.753 15.257 14.897 15.3125 15.041 15.3125C15.185 15.3125 15.329 15.2577 15.4385 15.1475C15.6583 14.9285 15.6583 14.5723 15.4385 14.3525ZM2.10352 7.25C2.10352 4.2515 4.54252 1.8125 7.54102 1.8125C10.5395 1.8125 12.9785 4.2515 12.9785 7.25C12.9785 10.2485 10.5395 12.6875 7.54102 12.6875C4.54252 12.6875 2.10352 10.2485 2.10352 7.25Z" fill="#757575"/>
</svg>
