<svg xmlns="http://www.w3.org/2000/svg" xmlns:xlink="http://www.w3.org/1999/xlink" width="129" zoomAndPan="magnify" viewBox="0 0 96.75 96.75" height="129" preserveAspectRatio="xMidYMid meet" version="1.0"><defs><clipPath id="3c44d31b34"><path d="M 0 0 L 88.761719 0 L 88.761719 88.761719 L 0 88.761719 Z M 0 0 " clip-rule="nonzero"/></clipPath><clipPath id="057cd77d35"><path d="M 0 0 L 88.75 0 L 88.75 88.75 L 0 88.75 Z M 0 0 " clip-rule="nonzero"/></clipPath><clipPath id="386c60115f"><path d="M 7.398438 7.398438 L 96.15625 7.398438 L 96.15625 96.15625 L 7.398438 96.15625 Z M 7.398438 7.398438 " clip-rule="nonzero"/></clipPath><clipPath id="6ffdc870ab"><path d="M 7.398438 7.398438 L 96.148438 7.398438 L 96.148438 96.148438 L 7.398438 96.148438 Z M 7.398438 7.398438 " clip-rule="nonzero"/></clipPath></defs><g clip-path="url(#3c44d31b34)"><path fill="#00bf36" d="M 0 0 L 88.761719 0 L 88.761719 88.761719 L 0 88.761719 Z M 0 0 " fill-opacity="1" fill-rule="nonzero"/></g><g clip-path="url(#057cd77d35)"><path stroke-linecap="butt" transform="matrix(0.748067, 0, 0, 0.748067, 0, 0.00000299227)" fill="none" stroke-linejoin="miter" d="M 0 -0.000004 L 118.639109 -0.000004 L 118.639109 118.639105 L 0 118.639105 Z M 0 -0.000004 " stroke="#000000" stroke-width="8" stroke-opacity="1" stroke-miterlimit="4"/></g><g clip-path="url(#386c60115f)"><path fill="#00fa46" d="M 7.398438 7.398438 L 96.15625 7.398438 L 96.15625 96.15625 L 7.398438 96.15625 Z M 7.398438 7.398438 " fill-opacity="1" fill-rule="nonzero"/></g><g clip-path="url(#6ffdc870ab)"><path stroke-linecap="butt" transform="matrix(0.748067, 0, 0, 0.748067, 7.396667, 7.39667)" fill="none" stroke-linejoin="miter" d="M 0.0023661 0.0023621 L 118.641475 0.0023621 L 118.641475 118.641471 L 0.0023661 118.641471 Z M 0.0023661 0.0023621 " stroke="#005d15" stroke-width="8" stroke-opacity="1" stroke-miterlimit="4"/></g></svg>